/* XPM */
static char *e940c874f8a0431389608e5fdd5b534e[] = {
/* columns rows colors chars-per-pixel */
"32 32 82 1 ",
"  c None",
". c black",
"X c #010100",
"o c #010101",
"O c #020202",
"+ c gray1",
"@ c #040403",
"# c #050504",
"$ c #060605",
"% c #080807",
"& c #090908",
"* c #0B0B0A",
"= c #0C0C0B",
"- c #111110",
"; c #121111",
": c #131212",
"> c #131312",
", c #171615",
"< c #171716",
"1 c #1B1B19",
"2 c #1B1B1A",
"3 c #1E1E1C",
"4 c #21211F",
"5 c #222120",
"6 c #232321",
"7 c #242423",
"8 c #262524",
"9 c #272625",
"0 c #272725",
"q c #292927",
"w c #2C2C2A",
"e c #2D2D2B",
"r c #30302E",
"t c #323130",
"y c #343331",
"u c #353533",
"i c #393836",
"p c #3D3D3B",
"a c #001C40",
"s c #474644",
"d c #52524F",
"f c #555451",
"g c #565552",
"h c #575754",
"j c #585754",
"k c #5A5956",
"l c #5B5B57",
"z c #5C5B58",
"x c #5F5E5B",
"c c #61605D",
"v c #62615E",
"b c #656461",
"n c #666562",
"m c #6A6966",
"M c #6D6C68",
"N c #6F6E6A",
"B c #74736F",
"V c #7A7975",
"C c #7F7E79",
"Z c #83827E",
"A c #84837F",
"S c #FFC579",
"D c #868580",
"F c #8B8A85",
"G c #92908C",
"H c #999792",
"J c #9D9C97",
"K c #A5A39E",
"L c #A6A59F",
"P c #AAA9A4",
"I c #AEACA7",
"U c #B4B3AD",
"Y c #BCBAB4",
"T c #BDBBB5",
"R c #C2C0BA",
"E c #C6C4BE",
"W c #D7D5CE",
"Q c #DFDDD6",
"! c #E1DFD8",
"~ c #E9E7E0",
"^ c #F4F2EA",
"/ c #FFFDF5",
/* pixels */
"    aaaaaaaaaaaaaaaaaaaaaaaa    ",
"  aa////////////////////////aa  ",
" a////////////////////////////a ",
" a////////////////////////////a ",
"a///////////^UAbmBFU!//////////a",
"a/////////ENe%ooooo#uZ/////////a",
"a///////^Ys#ooooooooo5/////////a",
"a///////Rc&ooo=8t8,oo,!////////a",
"a//////^N#oo-zU///Wp5e!////////a",
"a//////~ioo=C!/////!YY!////////a",
"a//////Q8oo3I//////////////////a",
"a//////~7ook!//////////////////a",
"a//////^8ooc///////////////////a",
"a///////yoof///////////////////a",
"a///////fooi///////////////////a",
"a///////A#o4R////////^^^///////a",
"a///////U-ood^//////HkdK///////a",
"a///////WxoooqbGFVhu%o@J///////a",
"a////////Y2oooo&oooooo2P///////a",
"a////////^C5ooooooooo-N^///////a",
"a//////////Ykr--#oo2jL/////////a",
"a////////////!EIHDGY^//////////a",
"aS////////////////////////////Sa",
"aS////////////////////////////Sa",
"aSSS////////////////////////SSSa",
"aSSSSSSSSSSSSSSSSSSSSSSSSSSSSSSa",
"aSSSSSSSSSSSSSSSSSSSSSSSSSSSSSSa",
"aSSSSSSSSSSSSSSSSSSSSSSSSSSSSSSa",
" aSSSSSSSSSSSSSSSSSSSSSSSSSSSSa ",
" aSSSSSSSSSSSSSSSSSSSSSSSSSSSSa ",
"  aaSSSSSSSSSSSSSSSSSSSSSSSSaa  ",
"    aaaaaaaaaaaaaaaaaaaaaaaa    "
};
