/* XPM */
static char *_5cc7976ca454457ad5ba8ea91b98b71[] = {
/* columns rows colors chars-per-pixel */
"32 32 77 1 ",
"  c None",
". c black",
"X c #010100",
"o c #010101",
"O c #020202",
"+ c #030202",
"@ c gray1",
"# c #040303",
"$ c #040403",
"% c #040404",
"& c #050504",
"* c gray2",
"= c #060605",
"- c #060606",
"; c #080707",
": c #080807",
"> c #0A0A09",
", c #131312",
"< c #1D1D1C",
"1 c #1F1F1E",
"2 c #2B2A28",
"3 c #2F2E2C",
"4 c #323230",
"5 c #343432",
"6 c #403F3D",
"7 c #40403D",
"8 c #001C40",
"9 c #474644",
"0 c #484744",
"q c #4A4A47",
"w c #4E4D4B",
"e c #4F4E4B",
"r c #504F4C",
"t c #51504D",
"y c #51504E",
"u c #535250",
"i c #5B5A57",
"p c #63625F",
"a c #64635F",
"s c #646360",
"d c #656461",
"f c #6C6B68",
"g c #6E6D69",
"h c #767571",
"j c #787773",
"k c #797874",
"l c #7C7B77",
"z c #FFC579",
"x c #898883",
"c c #8A8884",
"v c #8D8C88",
"b c #8E8C88",
"n c #908F8B",
"m c #92908B",
"M c #979691",
"N c #9E9D98",
"B c #9F9D98",
"V c #A5A49E",
"C c #A6A49F",
"Z c #AEACA7",
"A c #B0AEA9",
"S c #B1B0AA",
"D c #B3B1AC",
"F c #BCBAB4",
"G c #BDBBB5",
"H c #C2C1BB",
"J c #C4C2BC",
"K c #C6C4BE",
"L c #CBC9C3",
"P c #CCCAC3",
"I c #CDCBC5",
"U c #D5D3CC",
"Y c #DFDDD6",
"T c #E1DFD8",
"R c #E9E7E0",
"E c #F4F2EA",
"W c #FFFDF5",
/* pixels */
"    888888888888888888888888    ",
"  88WWWWWWWWWWWWWWWWWWWWWWWW88  ",
" 8WWWWWWWWWWWWWWWWWWWWWWWWWWWW8 ",
" 8WWWWWWWWWWWWWWWWWWWWWWWWWWWW8 ",
"8WWWWWWWAy56shcnMNVZZZKTWWWWWWW8",
"8WWWWWWWk.............,fWWWWWWW8",
"8WWWWWWWg..............pWWWWWWW8",
"8WWWWWWWb...;;*.$....#<jWWWWWWW8",
"8WWWWWWWD...DYIIIYIIJUYEWWWWWWW8",
"8WWWWWWWD...GWWWWWWWWWWWWWWWWWW8",
"8WWWWWWWH...elbSUEWWWWWWWWWWWWW8",
"8WWWWWWWH.......<GWWWWWWWWWWWWW8",
"8WWWWWWWH.......>GWWWWWWWWWWWWW8",
"8WWWWWWWP.......4LWWWWWWWWWWWWW8",
"8WWWWWWWU...NYREWWWWWWWWWWWWWWW8",
"8WWWWWWWY...ZWWWWWWWWWWWWWWWWWW8",
"8WWWWWWWY...ZWWWWWWWWWWWWWWWWWW8",
"8WWWWWWWU...MYYYREWWWWWWWWWWWWW8",
"8WWWWWWWP..........**.:2VWWWWWW8",
"8WWWWWWWU*..............xWWWWWW8",
"8WWWWWWWR3.............*xWWWWWW8",
"8WWWWWWWWDa79yiuyy0eqrdmTWWWWWW8",
"8zWWWWWWWWWWWWWWWWWWWWWWWWWWWWz8",
"8zWWWWWWWWWWWWWWWWWWWWWWWWWWWWz8",
"8zzzWWWWWWWWWWWWWWWWWWWWWWWWzzz8",
"8zzzzzzzzzzzzzzzzzzzzzzzzzzzzzz8",
"8zzzzzzzzzzzzzzzzzzzzzzzzzzzzzz8",
"8zzzzzzzzzzzzzzzzzzzzzzzzzzzzzz8",
" 8zzzzzzzzzzzzzzzzzzzzzzzzzzzz8 ",
" 8zzzzzzzzzzzzzzzzzzzzzzzzzzzz8 ",
"  88zzzzzzzzzzzzzzzzzzzzzzzz88  ",
"    888888888888888888888888    "
};
