/* XPM */
static char *_3d68edab14c4fb294ab3a9fe57d45f9m9xNhsk4XBUyL3xe[] = {
/* columns rows colors chars-per-pixel */
"32 32 8 1 ",
"  c #781826",
". c #A52D27",
"X c #C0473F",
"o c #C96D45",
"O c #76C676",
"+ c #CCA562",
"@ c #CFC281",
"# c #E3E7AB",
/* pixels */
"OOOOOOOOOOOOOOOOOOOOOOOOOOOOOOOO",
"OOOOOOOOOOOOOOOOOOOOOOOOOOOOOOOO",
"OOOOOOOOOOOOOOooooOOOOOOOOOOOOOO",
"OOOOOOOOOOOOOooooooOOOOOOOOOOOOO",
"OOOOOOOOOOOOXo#ooo#XOOOOOOOOOOOO",
"OOOOOOOOOOOOXXooooXXOOOOOOOOOOOO",
"OOOOOOOOOOOO++@@##@+OOOOOOOOOOOO",
"OOOOOOOOOOO+++++@##@+OOOOOOOOOOO",
"OOOOOOO@+o +        + oo+@OOOOOO",
"OOOOOO@+oo +  XXooo +@ oo+@OOOOO",
"OOOOOO+ooX +XXooooooo+@ Xo+OOOOO",
"OOOOOOooX +Xoooooooooo+@ XXOOOOO",
"OOOOO XX +Xoooooooooooo+    OOOO",
"OOO    O+XXoooo.....ooooOO ...OO",
"OO... OO+Xoo+@.......+@oOOOooo.O",
"O.oooOOOXXoo++..+++..++oOOOooooO",
"OooooOOOXXooo..+@@@+..ooOOOooooO",
"OooooOOOXXooo..+o@@+..ooOOOXXXXO",
"OXXXXOOOXXooo..+oo@+..ooOOO....O",
"O....OOOXXooo...+++...ooOOoooooO",
"OoooooOOOXXo+@.......+@oOOo.oooO",
"Oooo.oOOOXXo++o.....o++OOo..oooO",
"Oooo..oOOOXXXXooooooooOOOoo.@.@O",
"O@.@.ooOOO  XXXXoooo  OOOOXXXXOO",
"OOXXXXOOOO.          .OOOOOOOOOO",
"OOOOOOOOOO.. OOOOOO ...OOOOOOOOO",
"OOOOOOOOOooooOOOOOOOooooOOOOOOOO",
"OOOOOOOOoo+ooOOOOOOOoo++OOOOOOOO",
"OOOOOOOOo++oOOOOOOOOOoo++OOOOOOO",
"OOOOOOO..+ooOOOOOOOOOooo..OOOOOO",
"OOOOOOooX.oOOOOOOOOOOOo.XooOOOOO",
"OOOOOOOOOOOOOOOOOOOOOOOOOOOOOOOO"
};
